<?xml version="1.0" encoding="utf-8"?>
<!-- Generator: Adobe Illustrator 14.0.0, SVG Export Plug-In . SVG Version: 6.00 Build 43363)  -->
<!DOCTYPE svg PUBLIC "-//W3C//DTD SVG 1.1//EN" "http://www.w3.org/Graphics/SVG/1.1/DTD/svg11.dtd">
<svg version="1.1" id="Layer_1" xmlns="http://www.w3.org/2000/svg" xmlns:xlink="http://www.w3.org/1999/xlink" x="0px" y="0px"
	 width="30px" height="30px" viewBox="0 0 30 30" enable-background="new 0 0 30 30" xml:space="preserve">
<g>
	<g>
		<path fill="#6EAD26" d="M10.766,10.749l1.061-1.061c0.585-0.585,0.586-1.535,0-2.121L8.998,4.738
			c-0.586-0.586-1.536-0.585-2.121,0L5.816,5.799l0,0c-2.147,2.147-2.828,8.485,3.536,14.848c6.364,6.364,12.702,5.684,14.85,3.536
			l0,0l1.061-1.061c0.586-0.586,0.586-1.536,0-2.122l-2.828-2.828c-0.586-0.585-1.536-0.585-2.121,0l-1.061,1.061
			c-0.781,0.781-2.122,0.707-5.658-2.828S9.985,11.53,10.766,10.749z"/>
		<rect x="8.144" y="4.421" transform="matrix(0.7074 -0.7069 0.7069 0.7074 -3.069 8.4285)" fill="#B6D692" width="1" height="7"/>
		
			<rect x="21.58" y="17.855" transform="matrix(0.7071 -0.7071 0.7071 0.7071 -8.6331 21.8677)" fill="#B6D692" width="1" height="7"/>
	</g>
	<rect fill="none" width="30" height="30"/>
</g>
</svg>
