<?xml version="1.0" encoding="utf-8"?>
<!-- Generator: Adobe Illustrator 14.0.0, SVG Export Plug-In . SVG Version: 6.00 Build 43363)  -->
<!DOCTYPE svg PUBLIC "-//W3C//DTD SVG 1.1//EN" "http://www.w3.org/Graphics/SVG/1.1/DTD/svg11.dtd">
<svg version="1.1" id="Layer_1" xmlns="http://www.w3.org/2000/svg" xmlns:xlink="http://www.w3.org/1999/xlink" x="0px" y="0px"
	 width="30px" height="30px" viewBox="0 0 30 30" enable-background="new 0 0 30 30" xml:space="preserve">
<g>
	<g>
		<circle fill="#EDA133" cx="23" cy="23" r="7"/>
		<path fill="#6386C0" d="M15,23c0-3.562,2.341-6.584,5.563-7.618C21.556,13.414,22,11.037,22,9c0-3.866-3.134-7-7-7
			c-3.866,0-7,3.134-7,7c0,2.803,0.828,6.258,2.791,8.393C12.958,19.75,8,21,5,22c-1.572,0.523-3,1.343-3,3v1.5
			C2,27.328,2.671,28,3.5,28h13.265C15.663,26.629,15,24.892,15,23z"/>
		<polygon fill="#FFFFFF" points="27,24 22,24 22,18 24,18 24,22 27,22 27,24 		"/>
		<path opacity="0.1" d="M15,23c0-1.404,0.366-2.724,1.005-3.872c-0.333,0.064-0.672,0.106-1.02,0.106
			c-1.637,0-3.134-0.747-4.304-1.979c0.039,0.044,0.07,0.095,0.109,0.138c1.679,1.826-0.917,2.986-3.567,3.882
			c0.553,0.547,2.366,2.569,7.746,2.569c0.026,0,0.049-0.002,0.076-0.002C15.016,23.565,15,23.284,15,23z"/>
	</g>
	<rect fill="none" width="30" height="30"/>
</g>
</svg>
