<?xml version="1.0" encoding="iso-8859-1"?>
<!-- Generator: Adobe Illustrator 18.1.0, SVG Export Plug-In . SVG Version: 6.00 Build 0)  -->
<svg version="1.1" id="Layer_1" xmlns="http://www.w3.org/2000/svg" xmlns:xlink="http://www.w3.org/1999/xlink" x="0px" y="0px"
	 viewBox="0 0 49 46" style="enable-background:new 0 0 49 46;" xml:space="preserve">
<g>
	<polygon style="fill:#003B71;" points="0,0 24.986,0 24.986,21.45 15.369,9.085 0,9.085 	"/>
	<polygon style="fill:#A7BAC9;" points="1.819,10.662 9.724,10.662 9.724,29.43 13.655,29.43 13.655,36.772 1.819,36.772 	"/>
	<polygon style="fill:#003B71;" points="40.219,38.591 15.232,38.591 15.232,17.141 24.849,29.505 40.219,29.505 	"/>
	<polygon style="fill:#A7BAC9;" points="38.399,27.928 30.495,27.928 30.495,9.161 26.564,9.161 26.564,1.819 38.399,1.819 	"/>
</g>
<g>
	<path style="fill:#FFFFFF;" d="M47.333,29.721v-3.797c0-4.595-3.739-8.333-8.333-8.333s-8.333,3.739-8.333,8.333v3.797
		C29.675,30.299,29,31.362,29,32.591v10c0,1.838,1.496,3.333,3.333,3.333h13.333c1.838,0,3.333-1.495,3.333-3.333v-10
		C49,31.362,48.325,30.299,47.333,29.721z"/>
	<path style="fill:#EE9F3C;" d="M45.667,30.924H32.333c-0.917,0-1.667,0.75-1.667,1.667v10c0,0.917,0.75,1.667,1.667,1.667h13.333
		c0.917,0,1.667-0.75,1.667-1.667v-10C47.333,31.674,46.583,30.924,45.667,30.924z"/>
	<path style="fill:#EE9F3C;" d="M34,25.924c0-2.761,2.239-5,5-5c2.761,0,5,2.239,5,5v3.333h1.667v-3.333
		c0-3.682-2.985-6.667-6.667-6.667s-6.667,2.985-6.667,6.667v3.333H34V25.924z"/>
</g>
</svg>
