<?xml version="1.0" encoding="utf-8"?>
<!-- Generator: Adobe Illustrator 14.0.0, SVG Export Plug-In . SVG Version: 6.00 Build 43363)  -->
<!DOCTYPE svg PUBLIC "-//W3C//DTD SVG 1.1//EN" "http://www.w3.org/Graphics/SVG/1.1/DTD/svg11.dtd">
<svg version="1.1" id="Layer_1" xmlns="http://www.w3.org/2000/svg" xmlns:xlink="http://www.w3.org/1999/xlink" x="0px" y="0px"
	 width="30px" height="30px" viewBox="0 0 30 30" enable-background="new 0 0 30 30" xml:space="preserve">
<g>
	<g>
		<path fill="#6386C0" d="M17.02,26.781c0.186-0.557,0.207-1.132,0.168-1.317c-0.107-0.168-0.544-0.637-1.09-0.91
			C15.4,24.206,15,23.64,15,23c0-0.638,0.399-1.203,1.098-1.553c0.545-0.272,0.981-0.739,1.09-0.91
			c0.039-0.187,0.018-0.761-0.169-1.318c-0.246-0.742-0.127-1.427,0.327-1.875c0.291-0.289,0.696-0.448,1.144-0.448
			c0.232,0,0.478,0.042,0.729,0.126c0.34,0.113,0.756,0.184,1.085,0.184c0.127,0,0.201-0.011,0.234-0.017
			c0.171-0.109,0.637-0.546,0.909-1.091c0.349-0.696,0.915-1.096,1.554-1.096s1.205,0.399,1.555,1.098
			c0.124,0.247,0.287,0.467,0.445,0.648V12L15,2H6.5C5.671,2,5,2.671,5,3.5v23C5,27.328,5.671,28,6.5,28h10.476
			C16.87,27.637,16.872,27.223,17.02,26.781z"/>
		<path opacity="0.1" d="M20.303,17.205c0.127,0,0.201-0.011,0.234-0.017c0.171-0.109,0.637-0.546,0.909-1.091
			c0.349-0.696,0.915-1.096,1.554-1.096s1.205,0.399,1.555,1.098c0.124,0.248,0.289,0.469,0.447,0.651V12h-10l5.196,5.195
			C20.23,17.197,20.271,17.205,20.303,17.205z"/>
		<polygon fill="#B1C2DF" points="15,2 15,12 25,12 		"/>
		<path fill="#FFD43D" d="M29.456,22.341c-0.726-0.363-1.36-1.007-1.548-1.373c-0.188-0.365-0.133-1.296,0.124-2.065
			c0.128-0.385,0.085-0.682-0.083-0.852c-0.168-0.169-0.466-0.209-0.851-0.081c-0.77,0.257-1.7,0.312-2.065,0.124
			c-0.366-0.188-1.011-0.822-1.373-1.548c-0.182-0.362-0.422-0.544-0.66-0.544s-0.479,0.182-0.66,0.544
			c-0.362,0.726-1.007,1.36-1.373,1.548c-0.365,0.188-1.296,0.133-2.065-0.124c-0.385-0.128-0.682-0.085-0.851,0.083
			c-0.17,0.168-0.211,0.466-0.083,0.851c0.257,0.77,0.312,1.7,0.124,2.065c-0.188,0.366-0.822,1.011-1.548,1.373
			C16.182,22.523,16,22.761,16,23c0,0.238,0.182,0.479,0.544,0.659c0.726,0.363,1.36,1.007,1.548,1.374
			c0.188,0.365,0.133,1.295-0.124,2.064c-0.128,0.385-0.087,0.684,0.083,0.852c0.169,0.168,0.466,0.211,0.851,0.083
			c0.77-0.257,1.7-0.312,2.065-0.125c0.366,0.188,1.011,0.822,1.373,1.548C22.521,29.818,22.762,30,23,30s0.479-0.182,0.66-0.545
			c0.362-0.726,1.007-1.36,1.373-1.548c0.365-0.188,1.296-0.132,2.065,0.125c0.385,0.128,0.683,0.087,0.851-0.082
			s0.211-0.466,0.083-0.851c-0.257-0.77-0.312-1.7-0.124-2.065c0.188-0.366,0.822-1.011,1.548-1.373
			C29.818,23.479,30,23.239,30,23.001C30,22.762,29.818,22.522,29.456,22.341z"/>
	</g>
	<rect fill="none" width="30" height="30"/>
</g>
</svg>
