<?xml version="1.0" encoding="utf-8"?>
<!-- Generator: Adobe Illustrator 14.0.0, SVG Export Plug-In . SVG Version: 6.00 Build 43363)  -->
<!DOCTYPE svg PUBLIC "-//W3C//DTD SVG 1.1//EN" "http://www.w3.org/Graphics/SVG/1.1/DTD/svg11.dtd">
<svg version="1.1" id="Layer_1" xmlns="http://www.w3.org/2000/svg" xmlns:xlink="http://www.w3.org/1999/xlink" x="0px" y="0px"
	 width="30px" height="30px" viewBox="0 0 30 30" enable-background="new 0 0 30 30" xml:space="preserve">
<g>
	<g>
		<path fill="#6386C0" d="M17,15.5c0-1.378,1.121-2.5,2.5-2.5H25v-3l-8-8H6.5C5.671,2,5,2.671,5,3.5v23C5,27.328,5.671,28,6.5,28H17
			V15.5z"/>
		<polygon fill="#B1C2DF" points="17,2 17,10 25,10 		"/>
		<path fill="#404040" d="M30,28.5c0,0.828-0.672,1.5-1.5,1.5h-9c-0.828,0-1.5-0.672-1.5-1.5v-13c0-0.829,0.672-1.5,1.5-1.5h9
			c0.828,0,1.5,0.671,1.5,1.5V28.5z"/>
		<rect x="20" y="16" fill="#B6D692" width="8" height="3"/>
		<rect x="20" y="20" fill="#FFFFFF" width="2" height="2"/>
		<rect x="23" y="20" fill="#FFFFFF" width="2" height="2"/>
		<rect x="26" y="20" fill="#FFFFFF" width="2" height="2"/>
		<rect x="20" y="23" fill="#FFFFFF" width="2" height="2"/>
		<rect x="23" y="23" fill="#FFFFFF" width="2" height="2"/>
		<rect x="20" y="26" fill="#FFFFFF" width="2" height="2"/>
		<rect x="23" y="26" fill="#FFFFFF" width="2" height="2"/>
		<rect x="26" y="23" fill="#EDA133" width="2" height="5"/>
		<polygon opacity="0.1" points="25,13 25,10 17,10 20,13 		"/>
	</g>
	<rect fill="none" width="30" height="30"/>
</g>
</svg>
