<?xml version="1.0" encoding="utf-8"?>
<!-- Generator: Adobe Illustrator 14.0.0, SVG Export Plug-In . SVG Version: 6.00 Build 43363)  -->
<!DOCTYPE svg PUBLIC "-//W3C//DTD SVG 1.1//EN" "http://www.w3.org/Graphics/SVG/1.1/DTD/svg11.dtd">
<svg version="1.1" id="Layer_1" xmlns="http://www.w3.org/2000/svg" xmlns:xlink="http://www.w3.org/1999/xlink" x="0px" y="0px"
	 width="30px" height="30px" viewBox="0 0 30 30" enable-background="new 0 0 30 30" xml:space="preserve">
<g>
	<g>
		<path fill="#6386C0" d="M15,23c0-4.411,3.589-8,8-8c0.691,0,1.359,0.098,2,0.263V5.5C25,4.671,24.328,4,23.5,4h-3.601
			C19.436,1.718,17.419,0,15,0s-4.436,1.718-4.899,4H6.5C5.671,4,5,4.671,5,5.5v21C5,27.328,5.671,28,6.5,28h10.265
			C15.663,26.629,15,24.892,15,23z"/>
		<path fill="#FFFFFF" d="M21,6h-1.5c-0.553,0-1-0.448-1-1c0-1.933-1.567-3.5-3.5-3.5S11.5,3.067,11.5,5c0,0.552-0.448,1-1,1H9
			C7.896,6,7,6.896,7,8v1h16V8C23,6.896,22.104,6,21,6z M15,6.5c-0.828,0-1.5-0.672-1.5-1.5s0.672-1.5,1.5-1.5s1.5,0.672,1.5,1.5
			S15.828,6.5,15,6.5z"/>
		<circle fill="#6EAD26" cx="23" cy="23" r="7"/>
		<polygon fill="#FFFFFF" points="26.369,19.369 22.224,23.739 20.631,22.147 19,23.778 22.224,27 28,21 		"/>
	</g>
	<rect fill="none" width="30" height="30"/>
</g>
</svg>
